<?xml version="1.0" encoding="UTF-8" standalone="no"?>
<svg
   width="320"
   height="320"
   fill="#4C6586"
   class="bi bi-signpost-split"
   viewBox="0 0 32 32"
   version="1.1"
   id="svg4"
   xmlns:xlink="http://www.w3.org/1999/xlink"
   xmlns="http://www.w3.org/2000/svg"
   xmlns:svg="http://www.w3.org/2000/svg">
  <defs
     id="defs8" />
  <path
     style="fill:#4C6586;stroke-width:1.80135"
     xlink:href="#path2"
     id="path980"
     d="m 16,3.1347656 c -0.02817,1.4e-6 -0.105036,0.026889 -0.144531,0.068359 -0.03722,0.039084 -0.09374,0.1660433 -0.09375,0.2578125 V 5.109375 A 1.3087159,1.3087159 0 0 1 16,4.8691406 h 0.568359 A 1.3087159,1.3087159 0 0 1 16.238281,4.5429688 V 3.4609375 c -8e-6,-0.091769 -0.05653,-0.218729 -0.09375,-0.2578125 C 16.105036,3.1616548 16.028169,3.134767 16,3.1347656 Z M 28.083984,8.0742188 27.859375,8.234375 28.083984,8.3945312 28.197266,8.234375 Z M 15.761719,11.359375 v 2.412109 a 1.3087159,1.3087159 0 0 1 -0.330078,0.326172 H 16 a 1.3087159,1.3087159 0 0 1 0.238281,0.140625 v -2.3125 a 1.3087159,1.3087159 0 0 1 0.330078,-0.326172 H 16 a 1.3087159,1.3087159 0 0 1 -0.238281,-0.240234 z m 0.476562,9.330078 A 1.3087159,1.3087159 0 0 1 16,20.830078 h -0.568359 a 1.3087159,1.3087159 0 0 1 0.330078,0.326172 v 7.708984 h 0.476562 z"
     transform="translate(5.1789224e-4)" />
  <path
     id="path2"
     style="fill:#4C6586;stroke-width:1.80135"
     d="m 16,1.8261719 c -0.402448,1.96e-5 -0.804265,0.1727003 -1.091797,0.4746093 -0.287532,0.3019091 -0.455038,0.7293024 -0.455078,1.1601563 V 13.771484 a 0.2100233,0.2100233 0 0 1 -0.210937,0.210938 H 5.453125 c -0.4751728,4e-6 -0.9474848,0.244076 -1.2363281,0.648437 l -1.7148438,2.402344 c -0.1735259,0.244533 -0.1742479,0.619285 0,0.863281 l 1.7148438,2.398438 c 0.2888434,0.40436 0.7611554,0.650387 1.2363281,0.65039 h 8.789063 a 0.2100233,0.2100233 0 0 1 0.210937,0.210938 v 9.017578 h 3.09375 V 11.925781 a 0.2100233,0.2100233 0 0 1 0.210937,-0.210937 h 8.789063 c 0.475173,-4e-6 0.947485,-0.244077 1.236328,-0.648438 a 0.2100233,0.2100233 0 0 1 0,-0.002 l 1.714844,-2.3984374 c 0.175268,-0.2447496 0.175268,-0.6185316 0,-0.8632812 L 27.783203,5.4042969 a 0.2100233,0.2100233 0 0 1 0,-0.00195 C 27.49436,4.9979831 27.022048,4.7539099 26.546875,4.7539062 H 17.757812 A 0.2100233,0.2100233 0 0 1 17.546875,4.5429688 V 3.4609375 C 17.546835,3.0300836 17.379329,2.6026903 17.091797,2.3007812 16.804265,1.9988722 16.402448,1.8261915 16,1.8261719 Z m 0,4.3515625 h 10.546875 a 0.2100233,0.2100233 0 0 1 0.169922,0.089844 l 1.318359,1.8457031 a 0.2100233,0.2100233 0 0 1 0,0.2421876 l -1.318359,1.8457032 a 0.2100233,0.2100233 0 0 1 -0.169922,0.08984 H 16 A 0.2100233,0.2100233 0 0 1 15.789062,10.080078 V 6.3886719 A 0.2100233,0.2100233 0 0 1 16,6.1777344 Z M 5.453125,15.40625 H 16 a 0.2100233,0.2100233 0 0 1 0.210938,0.210938 v 3.693359 A 0.2100233,0.2100233 0 0 1 16,19.521484 H 5.453125 A 0.2100233,0.2100233 0 0 1 5.28125,19.431641 L 3.9628906,17.583984 a 0.2100233,0.2100233 0 0 1 0.00195,-0.242187 L 5.2832031,15.496094 A 0.2100233,0.2100233 0 0 1 5.453125,15.40625 Z"
     transform="translate(-5.1789224e-4)" />
</svg>
